# xmcd
#
# Track frame offsets:
#	150
#	17450
#	33212
#	51200
#	67375
#	83012
#	95562
#	108987
#	123575
#	142137
#	157625
#	174812
#	189850
#	205862
#	221200
#
# Disc length: 3195 seconds
#
# Revision: 1
# Processed by: cddbd v1.5.1PL0 Copyright (c) Steve Scherf et al.
# Submitted via: CDex 1.50Beta5
#
DISCID=c80c790f
DTITLE=園まり - 夢は夜ひらく/園まり
DYEAR=1900
DGENRE=Pop
TTITLE0=逢いたくて逢いたくて
TTITLE1=何も云わないで
TTITLE2=やさしい雨
TTITLE3=帰りたくないの
TTITLE4=つれてって
TTITLE5=お帰りなさい
TTITLE6=夜の指定席
TTITLE7=面影のワルツ
TTITLE8=夢は夜ひらく
TTITLE9=大阪の女
TTITLE10=愛は惜しみなく
TTITLE11=私が何をしたのでしょう
TTITLE12=恋する女のブルース
TTITLE13=幸せになってね
TTITLE14=さかだち
EXTD=
EXTT0=
EXTT1=
EXTT2=
EXTT3=
EXTT4=
EXTT5=
EXTT6=
EXTT7=
EXTT8=
EXTT9=
EXTT10=
EXTT11=
EXTT12=
EXTT13=
EXTT14=
PLAYORDER=
